{
  "accessors": [
    {
      "bufferView": 2,
      "componentType": 5126,
      "count": 14544,
      "max": [
        1.2359799146652222,
        0.8188275098800659,
        1.1918694972991943
      ],
      "min": [
        -1.2391477823257446,
        0.007129758596420288,
        -1.2737997770309448
      ],
      "type": "VEC3"
    },
    {
      "bufferView": 2,
      "byteOffset": 174528,
      "componentType": 5126,
      "count": 14544,
      "max": [
        0.9996334910392761,
        0.9999799132347107,
        0.9999616146087646
      ],
      "min": [
        -0.9993329644203186,
        -1.0,
        -0.9995566606521606
      ],
      "type": "VEC3"
    },
    {
      "bufferView": 1,
      "componentType": 5126,
      "count": 14544,
      "max": [
        0.9979950189590454,
        0.5215363502502441
      ],
      "min": [
        0.0020049833692610264,
        0.0020049833692610264
      ],
      "type": "VEC2"
    },
    {
      "bufferView": 0,
      "componentType": 5125,
      "count": 85662,
      "type": "SCALAR"
    }
  ],
  "asset": {
    "extras": {
      "author": "Unreal Designer (https://sketchfab.com/unrealdesigner.ig)",
      "license": "CC-BY-4.0 (http://creativecommons.org/licenses/by/4.0/)",
      "source": "https://sketchfab.com/3d-models/bean-bag-base-mesh-3-2ead0aad0ab841009f0dc46ed612cca9",
      "title": "Bean Bag - Base Mesh 3"
    },
    "generator": "Sketchfab-14.81.0",
    "version": "2.0"
  },
  "bufferViews": [
    {
      "buffer": 0,
      "byteLength": 342648,
      "name": "floatBufferViews",
      "target": 34963
    },
    {
      "buffer": 0,
      "byteLength": 116352,
      "byteOffset": 342648,
      "byteStride": 8,
      "name": "floatBufferViews",
      "target": 34962
    },
    {
      "buffer": 0,
      "byteLength": 349056,
      "byteOffset": 459000,
      "byteStride": 12,
      "name": "floatBufferViews",
      "target": 34962
    }
  ],
  "buffers": [
    {
      "byteLength": 808056,
      "uri": "scene.bin"
    }
  ],
  "materials": [
    {
      "doubleSided": true,
      "name": "Material.002",
      "pbrMetallicRoughness": {
        "baseColorFactor": [
          0.827553,
          0.407393,
          0.052924,
          1.0
        ],
        "metallicFactor": 0.047238239202252806,
        "roughnessFactor": 0.6140971096292864
      }
    }
  ],
  "meshes": [
    {
      "name": "Object_0",
      "primitives": [
        {
          "attributes": {
            "NORMAL": 1,
            "POSITION": 0,
            "TEXCOORD_0": 2
          },
          "indices": 3,
          "material": 0,
          "mode": 4
        }
      ]
    }
  ],
  "nodes": [
    {
      "children": [
        1
      ],
      "matrix": [
        0.6269069910049438,
        0.0,
        0.0,
        0.0,
        0.0,
        1.3920131514243291e-16,
        -0.6269069910049438,
        0.0,
        0.0,
        0.6269069910049438,
        1.3920131514243291e-16,
        0.0,
        0.0,
        0.0,
        0.0,
        1.0
      ],
      "name": "Sketchfab_model"
    },
    {
      "children": [
        2
      ],
      "name": "root"
    },
    {
      "children": [
        3
      ],
      "matrix": [
        1.0,
        0.0,
        0.0,
        0.0,
        0.0,
        2.220446049250313e-16,
        1.0,
        0.0,
        0.0,
        -1.0,
        2.220446049250313e-16,
        0.0,
        0.0,
        0.0,
        0.0,
        1.0
      ],
      "name": "GLTF_SceneRootNode"
    },
    {
      "children": [
        4
      ],
      "name": "BeanBag3_0"
    },
    {
      "mesh": 0,
      "name": "Object_4"
    }
  ],
  "scene": 0,
  "scenes": [
    {
      "name": "Sketchfab_Scene",
      "nodes": [
        0
      ]
    }
  ]
}
