{
  "accessors": [
    {
      "bufferView": 2,
      "componentType": 5126,
      "count": 243,
      "max": [
        59.81646728515625,
        15.413521766662598,
        14.474471092224121
      ],
      "min": [
        -53.519657135009766,
        -15.143412590026855,
        -15.729846000671387
      ],
      "type": "VEC3"
    },
    {
      "bufferView": 2,
      "byteOffset": 2916,
      "componentType": 5126,
      "count": 243,
      "max": [
        1.0,
        0.9999380111694336,
        0.9922182559967041
      ],
      "min": [
        -0.9995043873786926,
        -0.9991022348403931,
        -0.984832227230072
      ],
      "type": "VEC3"
    },
    {
      "bufferView": 3,
      "componentType": 5126,
      "count": 243,
      "max": [
        0.4110703766345978,
        0.9929882884025574,
        1.0,
        1.0
      ],
      "min": [
        -0.43381115794181824,
        -0.9915421605110168,
        -1.0,
        1.0
      ],
      "type": "VEC4"
    },
    {
      "bufferView": 1,
      "componentType": 5126,
      "count": 243,
      "max": [
        0.87109375,
        0.9968795776367188
      ],
      "min": [
        0.003475189208984375,
        0.0029296875
      ],
      "type": "VEC2"
    },
    {
      "bufferView": 1,
      "byteOffset": 1944,
      "componentType": 5126,
      "count": 243,
      "max": [
        0.9921875,
        0.9921875
      ],
      "min": [
        0.0078125,
        0.0078125
      ],
      "type": "VEC2"
    },
    {
      "bufferView": 0,
      "componentType": 5125,
      "count": 1188,
      "type": "SCALAR"
    }
  ],
  "asset": {
    "extras": {
      "author": "jeff_severson (https://sketchfab.com/jeff_severson)",
      "license": "CC-BY-4.0 (http://creativecommons.org/licenses/by/4.0/)",
      "source": "https://sketchfab.com/3d-models/pillow-long-cylinder-01-d81e328d9cac495f8679c3e397dbd287",
      "title": "Pillow Long Cylinder 01"
    },
    "generator": "Sketchfab-12.68.0",
    "version": "2.0"
  },
  "bufferViews": [
    {
      "buffer": 0,
      "byteLength": 4752,
      "name": "floatBufferViews",
      "target": 34963
    },
    {
      "buffer": 0,
      "byteLength": 3888,
      "byteOffset": 4752,
      "byteStride": 8,
      "name": "floatBufferViews",
      "target": 34962
    },
    {
      "buffer": 0,
      "byteLength": 5832,
      "byteOffset": 8640,
      "byteStride": 12,
      "name": "floatBufferViews",
      "target": 34962
    },
    {
      "buffer": 0,
      "byteLength": 3888,
      "byteOffset": 14472,
      "byteStride": 16,
      "name": "floatBufferViews",
      "target": 34962
    }
  ],
  "buffers": [
    {
      "byteLength": 18360,
      "uri": "scene.bin"
    }
  ],
  "images": [
    {
      "uri": "textures/Pillow_Throne_Long_Inst2_baseColor.png"
    },
    {
      "uri": "textures/Pillow_Throne_Long_Inst2_metallicRoughness.png"
    },
    {
      "uri": "textures/Pillow_Throne_Long_Inst2_normal.png"
    }
  ],
  "materials": [
    {
      "doubleSided": true,
      "name": "Pillow_Throne_Long_Inst2",
      "normalTexture": {
        "index": 2
      },
      "pbrMetallicRoughness": {
        "baseColorTexture": {
          "index": 0
        },
        "metallicRoughnessTexture": {
          "index": 1
        }
      }
    }
  ],
  "meshes": [
    {
      "name": "Pillow_Throne_Long_01_Pillow_Throne_Long_Inst2_0",
      "primitives": [
        {
          "attributes": {
            "NORMAL": 1,
            "POSITION": 0,
            "TANGENT": 2,
            "TEXCOORD_0": 3,
            "TEXCOORD_1": 4
          },
          "indices": 5,
          "material": 0,
          "mode": 4
        }
      ]
    }
  ],
  "nodes": [
    {
      "children": [
        1
      ],
      "matrix": [
        1.0,
        0.0,
        0.0,
        0.0,
        0.0,
        2.220446049250313e-16,
        -1.0,
        0.0,
        0.0,
        1.0,
        2.220446049250313e-16,
        0.0,
        0.0,
        0.0,
        0.0,
        1.0
      ],
      "name": "Sketchfab_model"
    },
    {
      "children": [
        2
      ],
      "matrix": [
        1.0,
        0.0,
        0.0,
        0.0,
        0.0,
        -1.0,
        0.0,
        0.0,
        0.0,
        0.0,
        -1.0,
        0.0,
        0.0,
        0.0,
        0.0,
        1.0
      ],
      "name": "01f363b50d9743b09636ea7e37de9480.fbx"
    },
    {
      "children": [
        3
      ],
      "name": "RootNode"
    },
    {
      "children": [
        4
      ],
      "name": "Pillow_Throne_Long_01"
    },
    {
      "mesh": 0,
      "name": "Pillow_Throne_Long_01_Pillow_Throne_Long_Inst2_0"
    }
  ],
  "samplers": [
    {
      "magFilter": 9729,
      "minFilter": 9987,
      "wrapS": 10497,
      "wrapT": 10497
    }
  ],
  "scene": 0,
  "scenes": [
    {
      "name": "Sketchfab_Scene",
      "nodes": [
        0
      ]
    }
  ],
  "textures": [
    {
      "sampler": 0,
      "source": 0
    },
    {
      "sampler": 0,
      "source": 1
    },
    {
      "sampler": 0,
      "source": 2
    }
  ]
}
