{
  "accessors": [
    {
      "bufferView": 2,
      "componentType": 5126,
      "count": 18306,
      "max": [
        0.9851223230361938,
        0.9823741912841797,
        0.6534804701805115
      ],
      "min": [
        -0.9796491861343384,
        -0.9820189476013184,
        -0.5845289826393127
      ],
      "type": "VEC3"
    },
    {
      "bufferView": 2,
      "byteOffset": 219672,
      "componentType": 5126,
      "count": 18306,
      "max": [
        0.9999999403953552,
        0.9999842047691345,
        0.9999958872795105
      ],
      "min": [
        -1.0,
        -0.9999917149543762,
        -0.9999969005584717
      ],
      "type": "VEC3"
    },
    {
      "bufferView": 1,
      "componentType": 5126,
      "count": 18306,
      "max": [
        1.0000001192092896,
        1.0000001192092896
      ],
      "min": [
        0.0,
        0.0
      ],
      "type": "VEC2"
    },
    {
      "bufferView": 0,
      "componentType": 5125,
      "count": 109824,
      "type": "SCALAR"
    }
  ],
  "asset": {
    "extras": {
      "author": "yezenzeynberekat (https://sketchfab.com/zeynith)",
      "license": "CC-BY-4.0 (http://creativecommons.org/licenses/by/4.0/)",
      "source": "https://sketchfab.com/3d-models/white-pillow-c30b21d97bf24c8bb2053b845ce3b8b8",
      "title": "white pillow"
    },
    "generator": "Sketchfab-15.44.0",
    "version": "2.0"
  },
  "bufferViews": [
    {
      "buffer": 0,
      "byteLength": 439296,
      "name": "floatBufferViews",
      "target": 34963
    },
    {
      "buffer": 0,
      "byteLength": 146448,
      "byteOffset": 439296,
      "byteStride": 8,
      "name": "floatBufferViews",
      "target": 34962
    },
    {
      "buffer": 0,
      "byteLength": 439344,
      "byteOffset": 585744,
      "byteStride": 12,
      "name": "floatBufferViews",
      "target": 34962
    }
  ],
  "buffers": [
    {
      "byteLength": 1025088,
      "uri": "scene.bin"
    }
  ],
  "materials": [
    {
      "doubleSided": true,
      "name": "Material.003",
      "pbrMetallicRoughness": {
        "baseColorFactor": [
          0.8,
          0.774639,
          0.701398,
          1.0
        ],
        "metallicFactor": 0.0,
        "roughnessFactor": 0.8267622549502583
      }
    }
  ],
  "meshes": [
    {
      "name": "Plane_Material.003_0",
      "primitives": [
        {
          "attributes": {
            "NORMAL": 1,
            "POSITION": 0,
            "TEXCOORD_0": 2
          },
          "indices": 3,
          "material": 0,
          "mode": 4
        }
      ]
    }
  ],
  "nodes": [
    {
      "children": [
        1
      ],
      "matrix": [
        0.0,
        -0.006158463191241248,
        0.9999810457229614,
        0.0,
        1.0,
        -1.5959455978986625e-16,
        -3.543711097672514e-32,
        0.0,
        1.5959455978986625e-16,
        0.9999810457229614,
        0.006158463191241248,
        0.0,
        0.0,
        0.0,
        0.0,
        1.0
      ],
      "name": "Sketchfab_model"
    },
    {
      "children": [
        2
      ],
      "matrix": [
        0.009999999776482582,
        0.0,
        0.0,
        0.0,
        0.0,
        0.0,
        0.009999999776482582,
        0.0,
        0.0,
        -0.009999999776482582,
        0.0,
        0.0,
        0.0,
        0.0,
        0.0,
        1.0
      ],
      "name": "c9b6eee06cc34da9b6628f8a5c391942.fbx"
    },
    {
      "children": [
        3,
        6,
        8
      ],
      "name": "RootNode"
    },
    {
      "children": [
        4
      ],
      "matrix": [
        -29.086477364379697,
        -5.518905590722295,
        -95.51711910171437,
        0.0,
        56.63932069164076,
        79.46722539115298,
        -21.839126361216156,
        0.0,
        77.11007920637729,
        -60.452475336912016,
        -19.988344364310564,
        0.0,
        407.6245422363281,
        590.38623046875,
        -100.54539489746094,
        1.0
      ],
      "name": "Light"
    },
    {
      "children": [
        5
      ],
      "matrix": [
        1.0,
        0.0,
        0.0,
        0.0,
        0.0,
        2.220446049250313e-16,
        1.0,
        0.0,
        0.0,
        -1.0,
        2.220446049250313e-16,
        0.0,
        0.0,
        0.0,
        0.0,
        1.0
      ],
      "name": "Object_4"
    },
    {
      "name": "Object_5"
    },
    {
      "children": [
        7
      ],
      "matrix": [
        -65.1558127516791,
        -44.52713915455176,
        -61.417049289096546,
        0.0,
        -32.401349332924404,
        89.53957282709818,
        -30.5420854760369,
        0.0,
        68.59207001076241,
        8.666908837178815e-06,
        -72.76761921184274,
        0.0,
        735.88916015625,
        495.8309326171875,
        692.5791015625,
        1.0
      ],
      "name": "Camera"
    },
    {
      "name": "Object_7"
    },
    {
      "children": [
        9
      ],
      "matrix": [
        394.03466796875,
        0.0,
        0.0,
        0.0,
        -0.0,
        -7.041883911953377e-05,
        -432.2277526855412,
        0.0,
        0.0,
        259.7086486816372,
        -4.231190948714735e-05,
        0.0,
        -27.48773193359375,
        15.431964874267578,
        -120.78113555908203,
        1.0
      ],
      "name": "Plane"
    },
    {
      "mesh": 0,
      "name": "Plane_Material.003_0"
    }
  ],
  "scene": 0,
  "scenes": [
    {
      "name": "Sketchfab_Scene",
      "nodes": [
        0
      ]
    }
  ]
}
