{
  "accessors": [
    {
      "bufferView": 2,
      "componentType": 5126,
      "count": 487,
      "max": [
        32.72380447387695,
        15.21905517578125,
        42.29824447631836
      ],
      "min": [
        -15.583456993103027,
        0.14099998772144318,
        -12.940162658691406
      ],
      "type": "VEC3"
    },
    {
      "bufferView": 2,
      "byteOffset": 5844,
      "componentType": 5126,
      "count": 487,
      "max": [
        0.9486833810806274,
        0.9998027086257935,
        0.9996574521064758
      ],
      "min": [
        -0.9995704293251038,
        -1.0,
        -0.9537438154220581
      ],
      "type": "VEC3"
    },
    {
      "bufferView": 3,
      "componentType": 5126,
      "count": 487,
      "max": [
        0.9515411257743835,
        0.9867140650749207,
        0.9509203433990479,
        1.0
      ],
      "min": [
        -0.9610035419464111,
        -0.9788713455200195,
        -0.8435715436935425,
        -1.0
      ],
      "type": "VEC4"
    },
    {
      "bufferView": 1,
      "componentType": 5126,
      "count": 487,
      "max": [
        300.16351318359375,
        259.2184143066406
      ],
      "min": [
        -300.16351318359375,
        -259.2184143066406
      ],
      "type": "VEC2"
    },
    {
      "bufferView": 0,
      "componentType": 5125,
      "count": 2586,
      "type": "SCALAR"
    }
  ],
  "asset": {
    "extras": {
      "author": "AnnaPopova777 (https://sketchfab.com/AnnaPopova777)",
      "license": "CC-BY-4.0 (http://creativecommons.org/licenses/by/4.0/)",
      "source": "https://sketchfab.com/3d-models/pillow-triangulare-36c9d5bb313f47688791a1660146509f",
      "title": "Pillow triangulare"
    },
    "generator": "Sketchfab-12.77.0",
    "version": "2.0"
  },
  "bufferViews": [
    {
      "buffer": 0,
      "byteLength": 10344,
      "name": "floatBufferViews",
      "target": 34963
    },
    {
      "buffer": 0,
      "byteLength": 3896,
      "byteOffset": 10344,
      "byteStride": 8,
      "name": "floatBufferViews",
      "target": 34962
    },
    {
      "buffer": 0,
      "byteLength": 11688,
      "byteOffset": 14240,
      "byteStride": 12,
      "name": "floatBufferViews",
      "target": 34962
    },
    {
      "buffer": 0,
      "byteLength": 7792,
      "byteOffset": 25928,
      "byteStride": 16,
      "name": "floatBufferViews",
      "target": 34962
    }
  ],
  "buffers": [
    {
      "byteLength": 33720,
      "uri": "scene.bin"
    }
  ],
  "images": [
    {
      "uri": "textures/Fabric_37_baseColor.jpeg"
    },
    {
      "uri": "textures/Fabric_37_metallicRoughness.png"
    },
    {
      "uri": "textures/Fabric_37_normal.png"
    }
  ],
  "materials": [
    {
      "doubleSided": true,
      "name": "Fabric_37",
      "normalTexture": {
        "index": 2
      },
      "pbrMetallicRoughness": {
        "baseColorTexture": {
          "index": 0
        },
        "metallicFactor": 0.0,
        "metallicRoughnessTexture": {
          "index": 1
        }
      }
    }
  ],
  "meshes": [
    {
      "name": "pillow triangular 2_Fabric 37_0",
      "primitives": [
        {
          "attributes": {
            "NORMAL": 1,
            "POSITION": 0,
            "TANGENT": 2,
            "TEXCOORD_0": 3
          },
          "indices": 4,
          "material": 0,
          "mode": 4
        }
      ]
    }
  ],
  "nodes": [
    {
      "children": [
        1
      ],
      "matrix": [
        1.0,
        0.0,
        0.0,
        0.0,
        0.0,
        2.220446049250313e-16,
        -1.0,
        0.0,
        0.0,
        1.0,
        2.220446049250313e-16,
        0.0,
        0.0,
        0.0,
        0.0,
        1.0
      ],
      "name": "Sketchfab_model"
    },
    {
      "children": [
        2
      ],
      "matrix": [
        0.0010000000474974513,
        0.0,
        0.0,
        0.0,
        0.0,
        0.0,
        0.0010000000474974513,
        0.0,
        0.0,
        -0.0010000000474974513,
        0.0,
        0.0,
        0.0,
        0.0,
        0.0,
        1.0
      ],
      "name": "pillow triangulare.fbx"
    },
    {
      "children": [
        3
      ],
      "name": "RootNode"
    },
    {
      "children": [
        4
      ],
      "matrix": [
        10.0,
        0.0,
        0.0,
        0.0,
        0.0,
        9.99999999999999,
        4.371139006309477e-07,
        0.0,
        0.0,
        -4.371139006309477e-07,
        9.99999999999999,
        0.0,
        0.0,
        0.0,
        0.0,
        1.0
      ],
      "name": "pillow triangular 2"
    },
    {
      "mesh": 0,
      "name": "pillow triangular 2_Fabric 37_0"
    }
  ],
  "samplers": [
    {
      "magFilter": 9729,
      "minFilter": 9987,
      "wrapS": 10497,
      "wrapT": 10497
    }
  ],
  "scene": 0,
  "scenes": [
    {
      "name": "Sketchfab_Scene",
      "nodes": [
        0
      ]
    }
  ],
  "textures": [
    {
      "sampler": 0,
      "source": 0
    },
    {
      "sampler": 0,
      "source": 1
    },
    {
      "sampler": 0,
      "source": 2
    }
  ]
}
