{
  "accessors": [
    {
      "bufferView": 2,
      "componentType": 5126,
      "count": 19372,
      "max": [
        0.9067162871360779,
        1.1410208940505981,
        0.5219003558158875
      ],
      "min": [
        -0.8916879892349243,
        -1.1407698392868042,
        -0.5200580358505249
      ],
      "type": "VEC3"
    },
    {
      "bufferView": 2,
      "byteOffset": 232464,
      "componentType": 5126,
      "count": 19372,
      "max": [
        0.9999995231628418,
        0.9996724128723145,
        0.9999984502792358
      ],
      "min": [
        -0.9999951124191284,
        -0.9999685287475586,
        -0.9999949932098389
      ],
      "type": "VEC3"
    },
    {
      "bufferView": 1,
      "componentType": 5126,
      "count": 19372,
      "max": [
        0.9999315738677979,
        0.9846683144569397
      ],
      "min": [
        6.840204878244549e-05,
        0.04776003956794739
      ],
      "type": "VEC2"
    },
    {
      "bufferView": 1,
      "byteOffset": 154976,
      "componentType": 5126,
      "count": 19372,
      "max": [
        0.9999315738677979,
        0.9846683144569397
      ],
      "min": [
        6.840204878244549e-05,
        0.04776003956794739
      ],
      "type": "VEC2"
    },
    {
      "bufferView": 0,
      "componentType": 5125,
      "count": 111936,
      "type": "SCALAR"
    }
  ],
  "asset": {
    "extras": {
      "author": "3DMish (https://sketchfab.com/3dmish)",
      "license": "CC-BY-4.0 (http://creativecommons.org/licenses/by/4.0/)",
      "source": "https://sketchfab.com/3d-models/pillow-28cf19822d954753a9173ebc09f77cf3",
      "title": "Pillow"
    },
    "generator": "Sketchfab-12.68.0",
    "version": "2.0"
  },
  "bufferViews": [
    {
      "buffer": 0,
      "byteLength": 447744,
      "name": "floatBufferViews",
      "target": 34963
    },
    {
      "buffer": 0,
      "byteLength": 309952,
      "byteOffset": 447744,
      "byteStride": 8,
      "name": "floatBufferViews",
      "target": 34962
    },
    {
      "buffer": 0,
      "byteLength": 464928,
      "byteOffset": 757696,
      "byteStride": 12,
      "name": "floatBufferViews",
      "target": 34962
    }
  ],
  "buffers": [
    {
      "byteLength": 1222624,
      "uri": "scene.bin"
    }
  ],
  "materials": [
    {
      "doubleSided": true,
      "name": "Pillow",
      "pbrMetallicRoughness": {
        "metallicFactor": 0.0,
        "roughnessFactor": 0.6114710365853658
      }
    }
  ],
  "meshes": [
    {
      "name": "Cube_Pillow_0",
      "primitives": [
        {
          "attributes": {
            "NORMAL": 1,
            "POSITION": 0,
            "TEXCOORD_0": 2,
            "TEXCOORD_1": 3
          },
          "indices": 4,
          "material": 0,
          "mode": 4
        }
      ]
    }
  ],
  "nodes": [
    {
      "children": [
        1
      ],
      "matrix": [
        1.0,
        0.0,
        0.0,
        0.0,
        0.0,
        2.220446049250313e-16,
        -1.0,
        0.0,
        0.0,
        1.0,
        2.220446049250313e-16,
        0.0,
        0.0,
        0.0,
        0.0,
        1.0
      ],
      "name": "Sketchfab_model"
    },
    {
      "children": [
        2
      ],
      "matrix": [
        1.0,
        0.0,
        0.0,
        0.0,
        0.0,
        0.0,
        1.0,
        0.0,
        0.0,
        -1.0,
        0.0,
        0.0,
        0.0,
        0.0,
        0.0,
        1.0
      ],
      "name": "9e1140c1000d4f3d8c01ce9688c27f98.fbx"
    },
    {
      "children": [
        3
      ],
      "name": "RootNode"
    },
    {
      "children": [
        4
      ],
      "matrix": [
        100.0,
        0.0,
        0.0,
        0.0,
        0.0,
        -4.371139006309477e-06,
        -99.9999999999999,
        0.0,
        0.0,
        99.9999999999999,
        -4.371139006309477e-06,
        0.0,
        0.0,
        0.0,
        0.0,
        1.0
      ],
      "name": "Cube"
    },
    {
      "mesh": 0,
      "name": "Cube_Pillow_0"
    }
  ],
  "scene": 0,
  "scenes": [
    {
      "name": "Sketchfab_Scene",
      "nodes": [
        0
      ]
    }
  ]
}
